# xmcd
# 
# Track frame offsets:
#     150
#     12647
#     22015
#     32869
#     47865
#     63336
#     77835
#     93979
#     104832
#     116871
#     132619
#     154150
#     172413
#     193239
#     205458
# 
# Disc length: 2981
# 
# Revision: 2
# Processed by: cddbd v1.5.2PL0 Copyright (c) Steve Scherf et al.
# Submitted via: fre:ac v1.1beta1pre5
# 
DISCID=ec0ba30f
DTITLE=Various Artist - The Ultimate Country Collection - CD10
DYEAR=2009
DGENRE=Country
TTITLE0=Hank Snow - I'm Movin' On
TTITLE1=Frankie Laine - Rawhide
TTITLE2=Jim Reeves - He'll Have To Go
TTITLE3=Alabama - Love In The First Degree
TTITLE4=Patty Loveless - You Can Feel Bad
TTITLE5=Mindy McCready - Guys Do It All The Time
TTITLE6=Clint Back - When My Ship Comes In
TTITLE7=Charlie Rich - There Won't Be Anymore
TTITLE8=Stonewall Jackson - A Wound Time Can't Erase
TTITLE9=Miranda Lambert - More Like Her
TTITLE10=Kenny Chesney - Don't Blink
TTITLE11=Brad Paisley - The World
TTITLE12=Sara Evans - You'll Always Be My Baby
TTITLE13=Gretchen Wilson - I Don't Feel Like Loving You Today
TTITLE14=Lonestar - You're Like Comin' Home
EXTD=YEAR: 2009
EXTT0=
EXTT1=
EXTT2=
EXTT3=
EXTT4=
EXTT5=
EXTT6=
EXTT7=
EXTT8=
EXTT9=
EXTT10=
EXTT11=
EXTT12=
EXTT13=
EXTT14=
PLAYORDER=
